<?xml version="1.0" standalone="no"?>
<!DOCTYPE svg PUBLIC "-//W3C//DTD SVG 20010904//EN"
 "http://www.w3.org/TR/2001/REC-SVG-20010904/DTD/svg10.dtd">
<svg version="1.0" xmlns="http://www.w3.org/2000/svg"
 width="500.000000pt" height="500.000000pt" viewBox="0 0 500.000000 500.000000"
 preserveAspectRatio="xMidYMid meet">

<g transform="translate(0.000000,500.000000) scale(0.100000,-0.100000)"
fill="#000000" stroke="none">
<path d="M1553 3480 c-21 -12 -36 -32 -43 -57 -11 -36 -3 -61 165 -528 97
-269 179 -501 182 -516 10 -50 -14 -59 -155 -59 -70 0 -133 4 -140 8 -6 5 -47
111 -91 237 -61 179 -84 234 -105 252 -47 40 -128 27 -158 -25 -31 -54 -451
-1157 -451 -1184 0 -39 22 -77 55 -94 40 -21 407 -20 448 1 36 19 38 23 90
165 23 63 48 125 56 138 l14 22 310 0 c293 0 310 -1 319 -19 6 -10 31 -74 56
-142 26 -70 57 -135 71 -149 l24 -25 226 0 226 0 29 33 c20 22 29 43 29 65 0
20 -142 402 -349 938 -299 772 -354 908 -381 931 l-30 28 -183 0 c-163 0 -185
-2 -214 -20z m384 -48 c7 -4 20 -26 29 -47 43 -103 684 -1769 684 -1778 0 -6
-7 -19 -17 -29 -14 -16 -35 -18 -203 -18 -165 0 -190 2 -208 18 -10 9 -36 64
-57 122 -48 133 -70 177 -94 190 -13 6 -140 10 -345 10 l-326 0 -29 -27 c-21
-20 -42 -66 -76 -161 -29 -81 -55 -137 -66 -142 -10 -6 -99 -10 -198 -10 -150
0 -182 3 -195 16 -9 8 -16 23 -16 32 0 27 439 1155 453 1164 19 12 43 9 56 -6
7 -8 46 -112 87 -233 98 -286 85 -273 279 -273 87 0 154 5 169 12 34 15 58 53
58 92 0 17 -79 251 -176 520 -97 269 -176 500 -176 512 0 13 8 28 18 33 20 12
331 15 349 3z"/>
<path d="M2194 3490 c-33 -13 -64 -59 -64 -95 0 -27 642 -1714 697 -1833 26
-56 51 -62 248 -62 191 0 219 6 245 54 7 14 13 38 13 53 0 16 -66 213 -148
438 -203 566 -205 571 -205 594 0 33 32 41 163 41 106 0 126 -3 139 -17 8 -10
47 -115 87 -233 82 -243 99 -270 171 -270 78 0 77 -2 321 629 138 359 221 588
221 610 0 28 -8 42 -36 68 l-36 33 -200 0 c-213 0 -247 -6 -270 -49 -5 -11
-30 -74 -55 -142 -24 -67 -50 -128 -56 -135 -16 -19 -624 -21 -636 -1 -4 6
-31 73 -59 147 -70 187 -58 180 -318 179 -111 0 -211 -4 -222 -9z m419 -62
c10 -7 41 -76 70 -152 40 -106 59 -144 80 -160 28 -20 39 -21 354 -21 l325 0
27 30 c15 18 47 86 75 163 30 82 55 136 66 142 10 6 100 10 199 10 150 0 182
-3 195 -16 9 -8 16 -22 16 -31 0 -8 -100 -274 -222 -589 -198 -513 -224 -575
-246 -581 -16 -4 -29 0 -42 13 -10 11 -50 117 -90 236 -93 282 -79 268 -278
268 -169 0 -201 -11 -221 -73 -12 -37 15 -120 298 -902 56 -153 58 -166 35
-189 -13 -13 -44 -16 -179 -16 -186 0 -182 -2 -213 82 -11 29 -167 432 -346
896 -179 464 -326 848 -326 854 0 6 7 20 17 30 14 16 35 18 203 18 133 0 191
-4 203 -12z"/>
</g>
</svg>
